<svg width="62" height="64" viewBox="0 0 62 64" fill="none" xmlns="http://www.w3.org/2000/svg">
<path d="M61.7125 29.293L57.7125 25.293C57.6197 25.2001 57.5094 25.1264 57.3881 25.0762C57.2668 25.0259 57.1368 25 57.0055 25C56.8741 25 56.7441 25.0259 56.6228 25.0762C56.5015 25.1264 56.3913 25.2001 56.2984 25.293L52.2984 29.293C52.2055 29.3858 52.1319 29.496 52.0816 29.6173C52.0313 29.7387 52.0055 29.8687 52.0055 30V40C52.0055 40.1313 52.0313 40.2614 52.0815 40.3827C52.1318 40.5041 52.2054 40.6143 52.2983 40.7072C52.3912 40.8001 52.5014 40.8737 52.6228 40.924C52.7441 40.9742 52.8742 41 53.0055 41H61.0055C61.1368 41 61.2669 40.9742 61.3882 40.924C61.5096 40.8737 61.6198 40.8001 61.7127 40.7072C61.8055 40.6143 61.8792 40.5041 61.9294 40.3827C61.9797 40.2614 62.0055 40.1313 62.0055 40V30C62.0055 29.8687 61.9796 29.7387 61.9294 29.6173C61.8791 29.496 61.8054 29.3858 61.7125 29.293Z" fill="#FFD281"/>
<path d="M44.0055 17H14.0055C13.8742 17 13.7441 17.0258 13.6228 17.0761C13.5014 17.1263 13.3912 17.2 13.2983 17.2928C13.2054 17.3857 13.1318 17.4959 13.0815 17.6173C13.0313 17.7386 13.0055 17.8687 13.0055 18V33C13.0055 33.1903 13.0597 33.3767 13.162 33.5372C13.2642 33.6978 13.4102 33.8258 13.5826 33.9062L28.5826 40.9062C28.7151 40.968 28.8594 41 29.0055 41C29.1516 41 29.2959 40.968 29.4283 40.9062L44.4283 33.9062C44.6008 33.8258 44.7468 33.6978 44.849 33.5372C44.9512 33.3767 45.0055 33.1903 45.0055 33V18C45.0055 17.8687 44.9797 17.7386 44.9294 17.6173C44.8792 17.4959 44.8055 17.3857 44.7127 17.2928C44.6198 17.2 44.5096 17.1263 44.3882 17.0761C44.2669 17.0258 44.1368 17 44.0055 17Z" fill="#8143E7"/>
<path d="M44.0055 17H14.0055C13.8742 17 13.7441 17.0258 13.6228 17.0761C13.5014 17.1263 13.3912 17.2 13.2983 17.2928C13.2054 17.3857 13.1318 17.4959 13.0815 17.6173C13.0313 17.7386 13.0055 17.8687 13.0055 18V27.6373L28.5826 34.9063C28.7151 34.968 28.8594 35 29.0055 35C29.1516 35 29.2959 34.968 29.4283 34.9063L45.0055 27.6371V18C45.0055 17.8687 44.9797 17.7386 44.9294 17.6173C44.8792 17.4959 44.8055 17.3857 44.7127 17.2928C44.6198 17.2 44.5096 17.1263 44.3882 17.0761C44.2669 17.0258 44.1368 17 44.0055 17Z" fill="#B38DDB"/>
<path d="M57.4264 13.0928L29.4264 0.092771C29.2944 0.0319713 29.1508 0.000488281 29.0055 0.000488281C28.8602 0.000488281 28.7166 0.0319713 28.5846 0.092771L0.584597 13.0928C0.411627 13.1731 0.265212 13.3011 0.162609 13.4618C0.0600069 13.6226 0.00549316 13.8093 0.00549316 14C0.00549316 14.1907 0.0600069 14.3774 0.162609 14.5382C0.265212 14.6989 0.411627 14.8269 0.584597 14.9072L28.5846 27.9072C28.7165 27.9683 28.8601 28 29.0055 28C29.1509 28 29.2945 27.9683 29.4264 27.9072L57.4264 14.9072C57.5994 14.8269 57.7458 14.6989 57.8484 14.5382C57.951 14.3774 58.0055 14.1907 58.0055 14C58.0055 13.8093 57.951 13.6226 57.8484 13.4618C57.7458 13.3011 57.5994 13.1731 57.4264 13.0928Z" fill="#7338F2"/>
<path d="M57.0055 23C56.8742 23 56.7441 22.9742 56.6228 22.9239C56.5014 22.8737 56.3912 22.8 56.2983 22.7072C56.2054 22.6143 56.1318 22.5041 56.0815 22.3827C56.0313 22.2614 56.0055 22.1313 56.0055 22V15H29.0055C28.7403 15 28.4859 14.8946 28.2984 14.7071C28.1108 14.5196 28.0055 14.2652 28.0055 14C28.0055 13.7348 28.1108 13.4804 28.2984 13.2929C28.4859 13.1054 28.7403 13 29.0055 13H57.0055C57.1368 13 57.2669 13.0258 57.3882 13.0761C57.5096 13.1263 57.6198 13.2 57.7127 13.2928C57.8055 13.3857 57.8792 13.4959 57.9294 13.6173C57.9797 13.7386 58.0055 13.8687 58.0055 14V22C58.0055 22.1313 57.9797 22.2614 57.9294 22.3827C57.8792 22.5041 57.8055 22.6143 57.7127 22.7072C57.6198 22.8 57.5096 22.8737 57.3882 22.9239C57.2669 22.9742 57.1368 23 57.0055 23Z" fill="#FFD281"/>
<path d="M57.0055 29C59.2146 29 61.0055 27.2091 61.0055 25C61.0055 22.7909 59.2146 21 57.0055 21C54.7964 21 53.0055 22.7909 53.0055 25C53.0055 27.2091 54.7964 29 57.0055 29Z" fill="#EFAA5E"/>
<path d="M48.7785 59.9648C47.4391 59.5996 46.0055 56.3115 46.0055 52C46.0055 47.6885 47.4391 44.4004 48.7785 44.0352C49.0246 43.968 49.2357 43.8093 49.3687 43.5916C49.5016 43.374 49.5464 43.1137 49.4938 42.8641C49.4412 42.6145 49.2953 42.3944 49.0858 42.2488C48.8763 42.1033 48.6191 42.0433 48.3669 42.0811L29.0055 44.9893L9.63781 42.0801L9.14758 42.0098C9.10051 42.0031 9.05303 41.9999 9.00549 42C6.1549 42 4.00549 46.2988 4.00549 52C4.00549 57.7012 6.1549 62 9.00549 62C9.05303 62.0002 9.10051 61.9969 9.14758 61.9902L29.0055 59.0107L48.3668 61.919C48.6191 61.9568 48.8763 61.8968 49.0858 61.7512C49.2952 61.6057 49.4412 61.3856 49.4938 61.136C49.5464 60.8864 49.5016 60.6261 49.3686 60.4084C49.2356 60.1907 49.0246 60.032 48.7785 59.9648Z" fill="#DBEDFF"/>
<path d="M33.0055 43H25.0055C24.4752 43.0006 23.9669 43.2115 23.5919 43.5865C23.217 43.9614 23.0061 44.4698 23.0055 45V63C23.0055 63.1634 23.0456 63.3244 23.1222 63.4687C23.1988 63.6131 23.3096 63.7365 23.445 63.8281C23.5803 63.9198 23.736 63.9769 23.8985 63.9944C24.061 64.0119 24.2253 63.9894 24.3771 63.9287L29.0055 62.0771L33.6339 63.9287C33.7857 63.9894 33.95 64.0119 34.1125 63.9944C34.275 63.9769 34.4307 63.9198 34.566 63.8281C34.7014 63.7365 34.8122 63.6131 34.8888 63.4687C34.9654 63.3244 35.0055 63.1634 35.0055 63V45C35.0049 44.4698 34.794 43.9614 34.419 43.5865C34.0441 43.2115 33.5357 43.0006 33.0055 43Z" fill="#7338F2"/>
<path d="M49.0055 42C48.958 41.9999 48.9105 42.0031 48.8634 42.0098L48.3732 42.0801C48.3323 42.0861 48.2919 42.0946 48.2521 42.1055C45.7516 42.7881 44.0055 46.8565 44.0055 52C44.0055 57.1436 45.7516 61.2119 48.2521 61.8945C48.2919 61.9054 48.3323 61.9139 48.3732 61.9199L48.8634 61.9902C48.9105 61.9969 48.958 62.0002 49.0055 62C51.8561 62 54.0055 57.7012 54.0055 52C54.0055 46.2988 51.8561 42 49.0055 42Z" fill="#B7CDED"/>
<path d="M47.0055 51H44.0289C44.014 51.3285 44.0055 51.6616 44.0055 52C44.0055 57.1435 45.7516 61.2119 48.2521 61.8945C48.2919 61.9054 48.3323 61.9139 48.3732 61.9199L48.8634 61.9902C48.9105 61.9969 48.958 62.0002 49.0055 62C49.3473 61.9987 49.6861 61.9356 50.0055 61.8137V54C50.0046 53.2046 49.6883 52.4421 49.1259 51.8796C48.5634 51.3172 47.8009 51.0009 47.0055 51Z" fill="#9EAFDB"/>
</svg>
